#!OML:ASF H:\Punching\Project 1\Capture day 1\Session 1\female.ASF
:FULLY-SPECIFIED
:DEGREES
1249
root 0.734707 14.4585 -0.862074 21.8257 -34.9529 -7.98789
lowerback -3.09069 3.80385 1.88663
upperback -6.51506 5.02726 -0.501759
thorax -4.80338 2.38959 -1.61716
lowerneck -9.25725 10.1245 18.6887
upperneck 34.3609 15.2181 -13.3412
head 16.584 7.29663 -6.37037
rclavicle -1.07344e-014 -1.35174e-014
rhumerus 10.9941 25.2858 -71.2617
rradius 128.161
rwrist -13.524
rhand -32.0353 7.17402
rfingers 7.12502
rthumb -5.28281 -22.7401
lclavicle -1.07344e-014 -1.35174e-014
lhumerus 1.39907 -10.6492 56.7575
lradius 139.505
lwrist 2.90977
lhand -26.7465 9.32144
lfingers 7.12502
lthumb -0.17527 39.3011
rfemur -3.97891 6.56918 10.9996
rtibia 28.3088
rfoot -22.5006 -23.6673
rtoes -22.2728
lfemur -57.7568 12.6969 -12.1909
ltibia 56.7329
lfoot -14.7264 19.2968
ltoes 12.8056
1250
root 0.698318 14.4523 -0.964337 21.937 -35.494 -7.94274
lowerback -3.01822 3.7685 1.79304
upperback -6.4963 4.97337 -0.704231
thorax -4.81608 2.36147 -1.77797
lowerneck -9.14963 10.298 18.8069
upperneck 33.9205 15.5415 -13.6667
head 16.4637 7.41051 -6.44817
rclavicle 1.79403e-014 1.90833e-014
rhumerus 11.0088 25.6596 -71.7038
rradius 128.083
rwrist -13.1255
rhand -32.0774 7.27051
rfingers 7.12502
rthumb -5.32344 -22.6426
lclavicle 1.79403e-014 1.90833e-014
lhumerus 1.22583 -10.0864 56.7286
lradius 139.644
lwrist 2.92556
lhand -26.6959 9.36775
lfingers 7.12502
lthumb -0.126344 39.3475
rfemur -4.14877 6.40453 11.1745
rtibia 27.7684
rfoot -23.6818 -23.8004
rtoes -21.8989
lfemur -57.7715 12.8325 -11.7606
ltibia 56.4328
lfoot -14.3983 19.6578
ltoes 12.9492
1251
root 0.660798 14.4485 -1.06839 21.9849 -36.0063 -7.87022
lowerback -2.91851 3.71828 1.67515
upperback -6.46764 4.90017 -0.897446
thorax -4.83763 2.32504 -1.9173
lowerneck -9.02019 10.4621 18.9092
upperneck 33.4995 15.8541 -13.9833
head 16.3461 7.52099 -6.52277
rclavicle -7.41964e-014 7.95139e-015
rhumerus 10.9607 26.051 -72.1509
rradius 127.994
rwrist -12.686
rhand -32.1277 7.37284
rfingers 7.12502
rthumb -5.37207 -22.5391
lclavicle -7.41964e-014 7.95139e-015
lhumerus 1.01957 -9.54016 56.7459
lradius 139.779
lwrist 2.94902
lhand -26.6488 9.31994
lfingers 7.12502
lthumb -0.0808455 39.2997
rfemur -4.32662 6.33987 11.3385
rtibia 27.3094
rfoot -24.7644 -23.8646
rtoes -21.4159
lfemur -57.6892 12.9581 -11.3336
ltibia 56.0577
lfoot -14.059 19.9733
ltoes 13.1259
1252
root 0.622119 14.4478 -1.17342 21.9791 -36.4858 -7.78265
lowerback -2.80471 3.6573 1.55103
upperback -6.42516 4.81271 -1.08327
thorax -4.85463 2.28217 -2.04576
lowerneck -8.88109 10.6164 18.9925
upperneck 33.1 16.1499 -14.2784
head 16.2312 7.62585 -6.5889
rclavicle 4.64659e-014 -3.02153e-014
rhumerus 10.8512 26.4448 -72.6001
rradius 127.902
rwrist -12.237
rhand -32.1783 7.45977
rfingers 7.12502
rthumb -5.4209 -22.4509
lclavicle 4.64659e-014 -3.02153e-014
lhumerus 0.798437 -9.02457 56.805
lradius 139.913
lwrist 2.94888
lhand -26.6196 9.19854
lfingers 7.12502
lthumb -0.0527016 39.1783
rfemur -4.50504 6.36524 11.5052
rtibia 26.9429
rfoot -25.7174 -23.9242
rtoes -20.8771
lfemur -57.5115 13.0776 -10.9021
ltibia 55.61
lfoot -13.7014 20.2405
ltoes 13.296
1253
root 0.582439 14.4502 -1.27877 21.9412 -36.9295 -7.70586
lowerback -2.6856 3.58946 1.44228
upperback -6.36831 4.71628 -1.25961
thorax -4.85984 2.23468 -2.17239
lowerneck -8.7472 10.7627 19.0649
upperneck 32.7277 16.4262 -14.547
head 16.1246 7.72477 -6.64607
rclavicle 7.75757e-014 -4.77083e-015
rhumerus 10.6872 26.8287 -73.051
rradius 127.807
rwrist -11.8021
rhand -32.2382 7.55351
rfingers 7.12502
rthumb -5.47875 -22.3557
lclavicle 7.75757e-014 -4.77083e-015
lhumerus 0.587977 -8.53807 56.8956
lradius 140.03
lwrist 2.90171
lhand -26.6131 9.03747
lfingers 7.12502
lthumb -0.0463734 39.0172
rfemur -4.6733 6.48486 11.7001
rtibia 26.6573
rfoot -26.5596 -24.0103
rtoes -20.2905
lfemur -57.2505 13.2011 -10.4489
ltibia 55.1005
lfoot -13.3204 20.4548
ltoes 13.4288
1254
root 0.542058 14.4555 -1.38377 21.8918 -37.3318 -7.66297
lowerback -2.57017 3.51731 1.37612
upperback -6.29773 4.61452 -1.42485
thorax -4.84678 2.18326 -2.30998
lowerneck -8.62121 10.9031 19.1316
upperneck 32.3801 16.6851 -14.7892
head 16.0262 7.81893 -6.69457
rclavicle -1.33186e-014 5.56597e-015
rhumerus 10.4758 27.1946 -73.5039
rradius 127.718
rwrist -11.4085
rhand -32.2914 7.6403
rfingers 7.12502
rthumb -5.53013 -22.2675
lclavicle -1.33186e-014 5.56597e-015
lhumerus 0.400698 -8.07785 57.0159
lradius 140.119
lwrist 2.78818
lhand -26.6368 8.83723
lfingers 7.12502
lthumb -0.0693252 38.817
rfemur -4.82216 6.6801 11.9444
rtibia 26.4238
rfoot -27.2983 -24.1303
rtoes -19.6629
lfemur -56.9229 13.332 -9.95654
ltibia 54.5468
lfoot -12.9135 20.613
ltoes 13.4931
1255
root 0.501376 14.4627 -1.48794 21.8584 -37.6894 -7.68058
lowerback -2.4643 3.44494 1.37408
upperback -6.21636 4.51336 -1.57589
thorax -4.8138 2.13002 -2.46709
lowerneck -8.51374 11.0397 19.2015
upperneck 32.0578 16.9273 -15.0073
head 15.9399 7.90888 -6.73648
rclavicle 2.37548e-014 1.82882e-014
rhumerus 10.2226 27.5258 -73.9536
rradius 127.64
rwrist -11.0757
rhand -32.3387 7.72086
rfingers 7.12502
rthumb -5.57579 -22.1858
lclavicle 2.37548e-014 1.82882e-014
lhumerus 0.250324 -7.64567 57.1613
lradius 140.176
lwrist 2.59722
lhand -26.6851 8.62269
lfingers 7.12502
lthumb -0.115902 38.6024
rfemur -4.94932 6.91136 12.2586
rtibia 26.2088
rfoot -27.9479 -24.266
rtoes -18.9363
lfemur -56.5538 13.4714 -9.40273
ltibia 53.9739
lfoot -12.4785 20.7153
ltoes 13.4621
1256
root 0.461055 14.4717 -1.59057 21.8625 -37.993 -7.77176
lowerback -2.37652 3.3694 1.44855
upperback -6.12789 4.4093 -1.70617
thorax -4.75998 2.07291 -2.64353
lowerneck -8.42604 11.1755 19.2744
upperneck 31.7545 17.1589 -15.206
head 15.8647 7.99635 -6.77227
rclavicle -4.88016e-014 6.36111e-015
rhumerus 9.95439 27.8285 -74.3907
rradius 127.563
rwrist -10.8011
rhand -32.3844 7.79693
rfingers 7.12502
rthumb -5.6199 -22.1086
lclavicle -4.88016e-014 6.36111e-015
lhumerus 0.135837 -7.23182 57.3312
lradius 140.205
lwrist 2.33147
lhand -26.736 8.46833
lfingers 7.12502
lthumb -0.165108 38.448
rfemur -5.05251 7.11714 12.6505
rtibia 25.9792
rfoot -28.4954 -24.3995
rtoes -18.1125
lfemur -56.1738 13.6024 -8.76863
ltibia 53.4071
lfoot -12.0249 20.7651
ltoes 13.3401
1257
root 0.421427 14.482 -1.69135 21.9181 -38.2408 -7.93309
lowerback -2.31781 3.29284 1.60127
upperback -6.04439 4.30498 -1.81748
thorax -4.6918 2.013 -2.84215
lowerneck -8.32547 11.3039 19.3555
upperneck 31.4553 17.375 -15.3931
head 15.7854 8.0807 -6.80786
rclavicle -7.11649e-014 1.51076e-014
rhumerus 9.66114 28.0934 -74.812
rradius 127.494
rwrist -10.5832
rhand -32.4323 7.87978
rfingers 7.12502
rthumb -5.6661 -22.0245
lclavicle -7.11649e-014 1.51076e-014
lhumerus 0.0464226 -6.84455 57.5212
lradius 140.215
lwrist 2.01826
lhand -26.7827 8.36201
lfingers 7.12502
lthumb -0.210177 38.3417
rfemur -5.13676 7.25957 13.113
rtibia 25.7116
rfoot -28.9379 -24.5128
rtoes -17.1828
lfemur -55.8083 13.7153 -8.0582
ltibia 52.8675
lfoot -11.5479 20.7671
ltoes 13.0609
1258
root 0.382774 14.4939 -1.7902 22.0322 -38.4358 -8.16335
lowerback -2.28789 3.21599 1.82603
upperback -5.97042 4.20134 -1.90725
thorax -4.61517 1.95107 -3.05735
lowerneck -8.20784 11.4255 19.4437
upperneck 31.1565 17.5784 -15.5719
head 15.7002 8.16291 -6.84413
rclavicle 1.00187e-013 2.70347e-014
rhumerus 9.36037 28.3196 -75.2067
rradius 127.428
rwrist -10.402
rhand -32.4883 7.95519
rfingers 7.12502
rthumb -5.72014 -21.9476
lclavicle 1.00187e-013 2.70347e-014
lhumerus -0.0251177 -6.49466 57.727
lradius 140.223
lwrist 1.67265
lhand -26.8234 8.33074
lfingers 7.12502
lthumb -0.249552 38.3103
rfemur -5.20901 7.34188 13.6419
rtibia 25.3969
rfoot -29.2735 -24.607
rtoes -16.1854
lfemur -55.4683 13.7931 -7.25933
ltibia 52.366
lfoot -11.0609 20.7278
ltoes 12.6687
1259
root 0.345297 14.5079 -1.88717 22.2 -38.5827 -8.44382
lowerback -2.28342 3.13964 2.10278
upperback -5.91215 4.09896 -1.97787
thorax -4.5399 1.88805 -3.28115
lowerneck -8.06665 11.5375 19.535
upperneck 30.854 17.7658 -15.7409
head 15.604 8.24164 -6.88049
rclavicle -4.36332e-014 1.43125e-014
rhumerus 9.06089 28.5033 -75.566
rradius 127.362
rwrist -10.2309
rhand -32.5433 8.01528
rfingers 7.12502
rthumb -5.77331 -21.8861
lclavicle -4.36332e-014 1.43125e-014
lhumerus -0.081118 -6.19162 57.9397
lradius 140.243
lwrist 1.32914
lhand -26.8685 8.36762
lfingers 7.12502
lthumb -0.293125 38.3472
rfemur -5.28032 7.39867 14.2192
rtibia 25.0425
rfoot -29.5139 -24.6991
rtoes -15.1608
lfemur -55.1572 13.8096 -6.36886
ltibia 51.9033
lfoot -10.5482 20.6562
ltoes 12.1161
1260
root 0.308843 14.5241 -1.98246 22.3973 -38.695 -8.74036
lowerback -2.29697 3.06101 2.39524
upperback -5.87172 3.99356 -2.0329
thorax -4.47499 1.82301 -3.49773
lowerneck -7.90157 11.6419 19.6211
upperneck 30.5538 17.9404 -15.8927
head 15.4982 8.31782 -6.91209
rclavicle -7.54388e-014 -3.18055e-015
rhumerus 8.77108 28.6537 -75.8836
rradius 127.297
rwrist -10.0542
rhand -32.5996 8.05924
rfingers 7.12502
rthumb -5.82763 -21.8406
lclavicle -7.54388e-014 -3.18055e-015
lhumerus -0.129566 -5.93792 58.147
lradius 140.287
lwrist 1.00882
lhand -26.9381 8.43661
lfingers 7.12502
lthumb -0.360259 38.416
rfemur -5.35475 7.46372 14.8118
rtibia 24.6628
rfoot -29.6775 -24.8017
rtoes -14.1483
lfemur -54.8604 13.7476 -5.40212
ltibia 51.4719
lfoot -10.0251 20.5383
ltoes 11.5533
1261
root 0.273268 14.5417 -2.0765 22.602 -38.782 -9.02367
lowerback -2.31696 2.97959 2.66516
upperback -5.84715 3.8842 -2.07609
thorax -4.42709 1.75683 -3.69024
lowerneck -7.71929 11.74 19.7105
upperneck 30.2489 18.1044 -16.0376
head 15.3842 8.39219 -6.94377
rclavicle -5.42682e-014 9.54166e-015
rhumerus 8.50611 28.7643 -76.1481
rradius 127.234
rwrist -9.8495
rhand -32.6677 8.08874
rfingers 7.12502
rthumb -5.89341 -21.8093
lclavicle -5.42682e-014 9.54166e-015
lhumerus -0.162562 -5.74424 58.343
lradius 140.361
lwrist 0.713647
lhand -27.0545 8.55417
lfingers 7.12502
lthumb -0.472704 38.5334
rfemur -5.43617 7.57662 15.3941
rtibia 24.2776
rfoot -29.7948 -24.932
rtoes -13.1638
lfemur -54.5711 13.6067 -4.38316
ltibia 51.0649
lfoot -9.49239 20.3376
ltoes 11.107
